Coordinates
version=1
nRows=32
nColumns=12
inDegrees=yes

Units are S.I. units (second, meters, Newtons, ...)
Angles are in degrees

endheader
time	SC_y	SC_z	SC_x	AC_y	AC_z	AC_x	GH_y	GH_z	GH_yy	EL_x	PS_y
       0.0               -46.3          20.83          38.09           33.8         -7.848          17.31          5.978          77.81         -37.41          96.39          148.1
    0.0141               -46.3          20.83           38.1           33.8         -7.849           17.3          5.969           77.8         -37.38          96.38          148.1
   0.02819               -46.3          20.83           38.1          33.81          -7.85           17.3          5.959          77.79         -37.35          96.38          148.1
   0.04229               -46.3          20.83          38.11          33.81         -7.852          17.29          5.949          77.77         -37.32          96.38          148.1
   0.05638               -46.3          20.83          38.11          33.82         -7.853          17.29          5.938          77.76         -37.28          96.37          148.1
   0.07048              -46.29          20.83          38.12          33.82         -7.855          17.28          5.927          77.75         -37.25          96.37          148.1
   0.08457              -46.29          20.83          38.12          33.83         -7.857          17.27          5.915          77.73         -37.21          96.37          148.1
   0.09867              -46.29          20.83          38.13          33.84         -7.859          17.26          5.902          77.71         -37.16          96.36          148.1
    0.1128              -46.29          20.83          38.14          33.84         -7.861          17.26          5.888           77.7         -37.12          96.36          148.1
    0.1269              -46.29          20.83          38.15          33.85         -7.863          17.25          5.873          77.68         -37.07          96.35          148.1
     0.141              -46.28          20.83          38.15          33.86         -7.865          17.24          5.856          77.66         -37.02          96.35          148.1
     0.155              -46.28          20.83          38.16          33.87         -7.868          17.23          5.839          77.64         -36.96          96.34          148.1
    0.1691              -46.28          20.83          38.17          33.88         -7.871          17.22           5.82          77.61          -36.9          96.33          148.1
    0.1832              -46.28          20.83          38.18          33.89         -7.874           17.2            5.8          77.59         -36.83          96.33          148.1
    0.1973              -46.27          20.83          38.19           33.9         -7.877          17.19          5.778          77.56         -36.76          96.32          148.1
    0.2114              -46.27          20.83           38.2          33.91          -7.88          17.18          5.755          77.53         -36.69          96.31          148.1
    0.2255              -46.27          20.83          38.22          33.93         -7.884          17.16          5.729           77.5          -36.6           96.3          148.1
    0.2396              -46.27          20.83          38.23          33.94         -7.888          17.15          5.701          77.47         -36.51          96.29          148.1
    0.2537              -46.26          20.83          38.25          33.96         -7.893          17.13           5.67          77.43         -36.41          96.28          148.0
    0.2678              -46.26          20.83          38.26          33.97         -7.898          17.11          5.637          77.39          -36.3          96.27          148.0
    0.2819              -46.25          20.83          38.28          33.99         -7.903          17.09            5.6          77.34         -36.18          96.26          148.0
     0.296              -46.25          20.83           38.3          34.01         -7.909          17.06          5.559          77.29         -36.05          96.25          148.0
    0.3101              -46.24          20.83          38.32          34.04         -7.916          17.04          5.514          77.24          -35.9          96.23          148.0
    0.3242              -46.23          20.83          38.35          34.06         -7.923          17.01          5.465          77.18         -35.74          96.21          148.0
    0.3383              -46.23          20.83          38.37          34.09         -7.931          16.98           5.41          77.11         -35.56          96.19          148.0
    0.3524              -46.22          20.83          38.41          34.12          -7.94          16.94          5.348          77.03         -35.36          96.17          148.0
    0.3665              -46.21          20.83          38.44          34.16          -7.95           16.9          5.279          76.95         -35.14          96.15          148.0
    0.3806               -46.2          20.83          38.48           34.2         -7.962          16.85          5.201          76.85         -34.89          96.12          148.0
    0.3947              -46.19          20.83          38.52          34.24         -7.974           16.8          5.114          76.74          -34.6          96.09          148.0
    0.4088              -46.18          20.83          38.57          34.29         -7.989          16.75          5.014          76.62         -34.28          96.06          147.9
    0.4229              -46.16          20.83          38.63          34.35         -8.006          16.68            4.9          76.48         -33.91          96.02          147.9
     0.437              -46.15          20.83          38.69          34.42         -8.025           16.6           4.77          76.32         -33.48          95.98          147.9
